<svg width="21" height="20" viewBox="0 0 21 20" fill="none" xmlns="http://www.w3.org/2000/svg">
<path d="M17.0625 8.64258V16.25C17.0625 16.7473 16.8551 17.2242 16.4859 17.5758C16.1167 17.9275 15.6159 18.125 15.0938 18.125H5.90625C5.38411 18.125 4.88335 17.9275 4.51413 17.5758C4.14492 17.2242 3.9375 16.7473 3.9375 16.25V3.75C3.9375 3.25272 4.14492 2.77581 4.51413 2.42417C4.88335 2.07254 5.38411 1.875 5.90625 1.875H9.95654C10.3045 1.87505 10.6382 2.0067 10.8843 2.24102L16.6782 7.75898C16.9242 7.99335 17.0624 8.31117 17.0625 8.64258Z" stroke="#ECEFF4" stroke-width="1.2" stroke-linejoin="round"/>
<path d="M10.5 2.1875V6.875C10.5 7.20652 10.6383 7.52446 10.8844 7.75888C11.1306 7.9933 11.4644 8.125 11.8125 8.125H16.7344M7.21875 11.25H13.7812M7.21875 14.375H13.7812" stroke="#ECEFF4" stroke-width="1.2" stroke-linecap="round" stroke-linejoin="round"/>
</svg>
