<svg width="36" height="36" viewBox="0 0 36 36" fill="none" xmlns="http://www.w3.org/2000/svg">
<path d="M18 5.625C15.5525 5.625 13.1599 6.35078 11.1248 7.71056C9.08977 9.07035 7.50363 11.0031 6.567 13.2643C5.63036 15.5255 5.3853 18.0137 5.86279 20.4142C6.34028 22.8148 7.51888 25.0198 9.24956 26.7504C10.9802 28.4811 13.1852 29.6597 15.5858 30.1372C17.9863 30.6147 20.4745 30.3696 22.7357 29.433C24.9969 28.4964 26.9297 26.9102 28.2894 24.8752C29.6492 22.8401 30.375 20.4475 30.375 18C30.375 14.7179 29.0712 11.5703 26.7505 9.24955C24.4297 6.92879 21.2821 5.625 18 5.625Z" stroke="#5E81AC" stroke-width="1.5" stroke-miterlimit="10"/>
<path d="M14.0625 14.2236C14.0625 14.2236 14.1216 12.9931 15.4385 11.9335C16.2197 11.3042 17.1562 11.1221 18 11.1094C18.7685 11.0996 19.4548 11.2268 19.8654 11.4223C20.5685 11.757 21.9375 12.574 21.9375 14.3115C21.9375 16.1396 20.7422 16.97 19.3802 17.8833C18.0183 18.7967 17.6484 19.7881 17.6484 20.8125" stroke="#5E81AC" stroke-width="1.5" stroke-miterlimit="10" stroke-linecap="round"/>
<path d="M17.5781 25.875C18.3548 25.875 18.9844 25.2454 18.9844 24.4688C18.9844 23.6921 18.3548 23.0625 17.5781 23.0625C16.8015 23.0625 16.1719 23.6921 16.1719 24.4688C16.1719 25.2454 16.8015 25.875 17.5781 25.875Z" fill="#5E81AC"/>
</svg>
