<svg width="21" height="21" viewBox="0 0 21 21" fill="none" xmlns="http://www.w3.org/2000/svg">
<path d="M17.0625 3.28125H3.9375C2.85019 3.28125 1.96875 4.16269 1.96875 5.25V15.75C1.96875 16.8373 2.85019 17.7188 3.9375 17.7188H17.0625C18.1498 17.7188 19.0312 16.8373 19.0312 15.75V5.25C19.0312 4.16269 18.1498 3.28125 17.0625 3.28125Z" stroke="#ECEFF4" stroke-width="1.2" stroke-linejoin="round"/>
<path d="M13.7812 8.53125C14.5061 8.53125 15.0938 7.94362 15.0938 7.21875C15.0938 6.49388 14.5061 5.90625 13.7812 5.90625C13.0564 5.90625 12.4688 6.49388 12.4688 7.21875C12.4688 7.94362 13.0564 8.53125 13.7812 8.53125Z" stroke="#ECEFF4" stroke-width="1.2" stroke-miterlimit="10"/>
<path d="M12.4688 13.7726L8.75027 10.0611C8.51365 9.82451 8.19562 9.68724 7.86118 9.67733C7.52673 9.66742 7.20113 9.78562 6.95092 10.0078L1.96875 14.4374M9.1875 17.7187L14.2464 12.6598C14.4777 12.428 14.7874 12.2911 15.1145 12.2759C15.4417 12.2607 15.7627 12.3684 16.0146 12.5778L19.0312 15.0937" stroke="#ECEFF4" stroke-width="1.2" stroke-linecap="round" stroke-linejoin="round"/>
</svg>
