<svg width="15" height="15" viewBox="0 0 15 15" fill="none" xmlns="http://www.w3.org/2000/svg">
<path d="M12.5818 0.939676C11.8904 1.13098 6.55986 2.66263 5.2418 3.03235C5.21728 3.03923 5.19568 3.05389 5.18024 3.07414C5.16481 3.09438 5.15639 3.1191 5.15625 3.14456V10.3809C5.15628 10.393 5.15255 10.4049 5.14557 10.4148C5.1386 10.4247 5.12871 10.4322 5.11729 10.4363L4.30137 10.716C3.74473 10.934 2.34375 11.2047 2.34375 12.4501C2.34375 13.4913 3.06533 13.9601 3.6873 14.0404C3.76288 14.0539 3.83936 14.0618 3.91611 14.0638C4.13203 14.0638 4.98193 13.8564 5.47764 13.5341C6.09375 13.1324 6.09375 13.1251 6.09375 12.0704V5.91809C6.09375 5.89173 6.11191 5.89348 6.13711 5.88675L11.6449 4.36565C11.6538 4.36321 11.6631 4.36289 11.6721 4.36472C11.6811 4.36654 11.6896 4.37047 11.6968 4.37618C11.704 4.38188 11.7098 4.38921 11.7137 4.39756C11.7175 4.40591 11.7194 4.41505 11.719 4.42425V8.98108C11.719 8.99332 11.7152 9.00523 11.708 9.01516C11.7009 9.02509 11.6908 9.03254 11.6792 9.03645C11.4185 9.12434 11.1158 9.22688 10.9034 9.30364C10.0017 9.62942 8.90625 9.83362 8.90625 11.0157C8.90625 12.144 9.73418 12.6148 10.2627 12.6514C10.4714 12.6672 10.6813 12.6574 10.8876 12.6221C11.1513 12.5817 11.5934 12.4492 12.005 12.1867C12.6562 11.7713 12.6562 11.7631 12.6562 10.547V0.996219C12.6563 0.987164 12.6542 0.978227 12.6502 0.97011C12.6462 0.961994 12.6403 0.954919 12.6331 0.94944C12.6259 0.943961 12.6175 0.940229 12.6086 0.938534C12.5997 0.93684 12.5906 0.937231 12.5818 0.939676Z" fill="#ECEFF4"/>
</svg>
