<svg width="22" height="22" viewBox="0 0 22 22" fill="none" xmlns="http://www.w3.org/2000/svg">
<path d="M19.25 11C19.25 6.44531 15.5547 2.75 11 2.75C6.44531 2.75 2.75 6.44531 2.75 11C2.75 15.5547 6.44531 19.25 11 19.25C15.5547 19.25 19.25 15.5547 19.25 11Z" stroke="white" stroke-width="1.5" stroke-miterlimit="10"/>
<path d="M15.0676 6.48507L10.0317 8.49944C9.68584 8.63776 9.37168 8.84489 9.10829 9.10829C8.84489 9.37168 8.63776 9.68584 8.49944 10.0317L6.48507 15.0676C6.46006 15.1301 6.45394 15.1985 6.46746 15.2645C6.48098 15.3304 6.51355 15.3909 6.56113 15.4385C6.60871 15.486 6.66921 15.5186 6.73512 15.5321C6.80104 15.5456 6.86947 15.5395 6.93194 15.5145L11.9679 13.5001C12.3137 13.3618 12.6279 13.1547 12.8913 12.8913C13.1547 12.6279 13.3618 12.3137 13.5001 11.9679L15.5145 6.93194C15.5395 6.86947 15.5456 6.80104 15.5321 6.73512C15.5186 6.66921 15.486 6.60871 15.4385 6.56113C15.3909 6.51355 15.3304 6.48098 15.2645 6.46746C15.1985 6.45394 15.1301 6.46006 15.0676 6.48507ZM10.9998 12.031C10.7958 12.031 10.5964 11.9706 10.4269 11.8572C10.2573 11.7439 10.1251 11.5829 10.047 11.3944C9.96899 11.206 9.94857 10.9986 9.98836 10.7986C10.0281 10.5986 10.1264 10.4148 10.2706 10.2706C10.4148 10.1264 10.5986 10.0281 10.7986 9.98836C10.9986 9.94857 11.206 9.96899 11.3944 10.047C11.5829 10.1251 11.7439 10.2573 11.8572 10.4269C11.9706 10.5964 12.031 10.7958 12.031 10.9998C12.031 11.2733 11.9224 11.5356 11.729 11.729C11.5356 11.9224 11.2733 12.031 10.9998 12.031Z" fill="white"/>
</svg>
