<svg width="28" height="28" viewBox="0 0 28 28" fill="none" xmlns="http://www.w3.org/2000/svg">
<path d="M17.5 21V21.875C17.5 22.8033 17.1313 23.6935 16.4749 24.3499C15.8185 25.0063 14.9283 25.375 14 25.375C13.0718 25.375 12.1815 25.0063 11.5252 24.3499C10.8688 23.6935 10.5 22.8033 10.5 21.875V21M23.3888 19.2188C21.9844 17.5 20.9929 16.625 20.9929 11.8863C20.9929 7.54688 18.777 6.00086 16.9532 5.25C16.7109 5.15047 16.4828 4.92187 16.409 4.67305C16.0891 3.58422 15.1922 2.625 14 2.625C12.8078 2.625 11.9104 3.58477 11.5938 4.67414C11.5199 4.9257 11.2919 5.15047 11.0496 5.25C9.22362 6.00195 7.00987 7.5425 7.00987 11.8863C7.00714 16.625 6.01565 17.5 4.61128 19.2188C4.0294 19.9309 4.53909 21 5.55682 21H22.4487C23.461 21 23.9674 19.9276 23.3888 19.2188Z" stroke="#5E81AC" stroke-width="1.5" stroke-linecap="round" stroke-linejoin="round"/>
<circle cx="21.5" cy="6.5" r="6.5" fill="#BF616A"/>
<path d="M22.1328 3.30078V9H21.0078V4.59766L19.6562 5.02734V4.14062L22.0117 3.30078H22.1328Z" fill="white"/>
</svg>
