<svg width="30" height="30" viewBox="0 0 30 30" fill="none" xmlns="http://www.w3.org/2000/svg">
<path d="M15.3687 11.2682C14.5993 11.1922 13.8252 11.3559 13.1524 11.7368C12.4796 12.1178 11.941 12.6973 11.6103 13.3962C11.2797 14.0951 11.1731 14.8791 11.3053 15.6409C11.4374 16.4026 11.8017 17.105 12.3484 17.6517C12.8951 18.1984 13.5975 18.5627 14.3592 18.6948C15.121 18.827 15.905 18.7204 16.6039 18.3898C17.3028 18.0591 17.8823 17.5205 18.2633 16.8477C18.6442 16.1749 18.8079 15.4009 18.7319 14.6314C18.6453 13.7689 18.2631 12.9629 17.6502 12.3499C17.0372 11.737 16.2312 11.3548 15.3687 11.2682V11.2682ZM24.398 15C24.3956 15.4076 24.3656 15.8146 24.3083 16.2182L26.9573 18.2959C27.0727 18.3915 27.1504 18.5249 27.1767 18.6724C27.203 18.8199 27.1761 18.972 27.1009 19.1016L24.5948 23.4375C24.5187 23.5658 24.3998 23.6632 24.2589 23.7124C24.1181 23.7616 23.9644 23.7595 23.8249 23.7064L21.194 22.6471C21.049 22.5893 20.8918 22.5684 20.7367 22.5863C20.5816 22.6042 20.4333 22.6603 20.3052 22.7496C19.9037 23.0261 19.4818 23.2717 19.0431 23.4844C18.9052 23.5514 18.7859 23.6514 18.6957 23.7754C18.6056 23.8995 18.5474 24.0438 18.5263 24.1957L18.1319 27.0018C18.106 27.15 18.0295 27.2846 17.9153 27.3826C17.8012 27.4806 17.6566 27.5359 17.5062 27.5391H12.494C12.3461 27.5365 12.2035 27.4836 12.0896 27.3892C11.9758 27.2947 11.8975 27.1642 11.8677 27.0193L11.4739 24.2174C11.4518 24.0638 11.3921 23.9181 11.3001 23.7932C11.2081 23.6683 11.0867 23.568 10.9466 23.5014C10.5084 23.2899 10.0879 23.0436 9.68916 22.7648C9.56148 22.676 9.41371 22.6203 9.25915 22.6028C9.10459 22.5854 8.94811 22.6066 8.80381 22.6646L6.17354 23.7234C6.03415 23.7765 5.8805 23.7787 5.73966 23.7296C5.59881 23.6805 5.47981 23.5833 5.40362 23.4551L2.89756 19.1191C2.82222 18.9896 2.79529 18.8375 2.82158 18.69C2.84787 18.5424 2.92567 18.409 3.04112 18.3135L5.27998 16.5557C5.40264 16.4583 5.49904 16.3318 5.56044 16.1878C5.62183 16.0437 5.64627 15.8866 5.63155 15.7307C5.61045 15.4863 5.59756 15.2426 5.59756 14.9982C5.59756 14.7539 5.60987 14.5137 5.63155 14.2746C5.64466 14.1196 5.61902 13.9639 5.55693 13.8213C5.49485 13.6787 5.39826 13.5538 5.27588 13.4578L3.03819 11.7C2.92461 11.604 2.84845 11.471 2.82306 11.3245C2.79767 11.1779 2.82467 11.0271 2.89932 10.8984L5.40537 6.5625C5.48148 6.43417 5.60044 6.33683 5.74129 6.28763C5.88214 6.23843 6.03584 6.24053 6.1753 6.29355L8.80616 7.35293C8.95124 7.41069 9.10838 7.43156 9.26351 7.41367C9.41864 7.39577 9.56691 7.33967 9.69502 7.25039C10.0965 6.9739 10.5185 6.72827 10.9571 6.51562C11.095 6.44859 11.2143 6.34864 11.3045 6.22458C11.3946 6.10052 11.4528 5.95618 11.4739 5.8043L11.8683 2.99824C11.8942 2.85005 11.9707 2.71545 12.0849 2.61745C12.199 2.51944 12.3436 2.46412 12.494 2.46094H17.5062C17.6541 2.4635 17.7967 2.51637 17.9106 2.61084C18.0244 2.70531 18.1027 2.83575 18.1325 2.98066L18.5263 5.78262C18.5484 5.93617 18.6081 6.08188 18.7001 6.2068C18.7921 6.33171 18.9135 6.43196 19.0536 6.49863C19.4918 6.71013 19.9123 6.95643 20.311 7.23516C20.4387 7.32399 20.5865 7.37966 20.7411 7.39716C20.8956 7.41465 21.0521 7.39341 21.1964 7.33535L23.8267 6.27656C23.9661 6.22348 24.1197 6.2213 24.2605 6.27039C24.4014 6.31948 24.5204 6.4167 24.5966 6.54492L27.1026 10.8809C27.178 11.0104 27.2049 11.1625 27.1786 11.31C27.1523 11.4576 27.0745 11.591 26.9591 11.6865L24.7202 13.4443C24.597 13.5414 24.5001 13.6677 24.4381 13.8118C24.3762 13.9559 24.3513 14.1132 24.3657 14.2693C24.3851 14.5119 24.398 14.7557 24.398 15Z" stroke="#5E81AC" stroke-width="1.5" stroke-linecap="round" stroke-linejoin="round"/>
</svg>
