<svg width="18" height="17" viewBox="0 0 18 17" fill="none" xmlns="http://www.w3.org/2000/svg">
<path d="M1.99321 6.22335C1.99334 6.22345 1.99347 6.22355 1.9936 6.22364L1.99321 6.22336L1.77197 6.52786L1.99321 6.22335ZM8.33426 1.10729L8.86766 1.28061L8.33426 1.10729L6.76796 5.92786H1.69932C1.02121 5.92786 0.739263 6.79559 1.28787 7.19418L5.38849 10.1735L3.82219 14.994L4.39282 15.1794L3.82219 14.994C3.61265 15.6389 4.35077 16.1752 4.89938 15.7766L9 12.7974L13.1006 15.7766L13.4533 15.2912L13.1006 15.7766C13.6492 16.1752 14.3874 15.6389 14.1778 14.994L12.6115 10.1735L16.7121 7.19418C17.2607 6.7956 16.9788 5.92786 16.3007 5.92786H11.232L9.66574 1.10729C9.45619 0.462387 8.54381 0.462369 8.33426 1.10729ZM6.6557 6.27336C6.65575 6.27322 6.65579 6.27309 6.65584 6.27295L6.65571 6.27336L6.6557 6.27336Z" stroke="#ECEFF4" stroke-width="1.2"/>
</svg>
