<svg width="20" height="21" viewBox="0 0 20 21" fill="none" xmlns="http://www.w3.org/2000/svg">
<path d="M14.6402 12.6648L17.8711 15.0527C17.9663 15.0971 18.0705 15.1159 18.1743 15.1072C18.2781 15.0986 18.3782 15.0629 18.4655 15.0033C18.5529 14.9437 18.6246 14.8622 18.6743 14.7661C18.724 14.67 18.75 14.5624 18.75 14.453V6.54687C18.75 6.43752 18.724 6.32991 18.6743 6.23381C18.6246 6.13771 18.5529 6.05617 18.4655 5.99659C18.3782 5.93701 18.2781 5.90129 18.1743 5.89267C18.0705 5.88405 17.9663 5.9028 17.8711 5.94722L14.6402 8.33515C14.5583 8.3957 14.4914 8.47605 14.4453 8.56942C14.3991 8.66278 14.375 8.76644 14.375 8.87163V12.1283C14.375 12.2335 14.3991 12.3371 14.4453 12.4305C14.4914 12.5239 14.5583 12.6042 14.6402 12.6648V12.6648Z" stroke="#ECEFF4" stroke-width="1.2" stroke-linecap="round" stroke-linejoin="round"/>
<path d="M10.4688 15.75H3.28125C2.743 15.7484 2.22725 15.5231 1.84665 15.1235C1.46605 14.7239 1.25155 14.1823 1.25 13.6172V7.38281C1.25155 6.81765 1.46605 6.27611 1.84665 5.87648C2.22725 5.47685 2.743 5.25162 3.28125 5.25H10.4875C11.0207 5.25173 11.5317 5.47492 11.9087 5.87083C12.2858 6.26675 12.4984 6.80322 12.5 7.36313V13.6172C12.4985 14.1823 12.284 14.7239 11.9034 15.1235C11.5228 15.5231 11.007 15.7484 10.4688 15.75Z" stroke="#ECEFF4" stroke-width="1.2" stroke-miterlimit="10"/>
</svg>
